<svg xmlns="http://www.w3.org/2000/svg" viewBox="0 0 194.5 175.5"><defs><style>.cls-1{fill:none;stroke:#000;stroke-miterlimit:10;stroke-width:5px;}</style></defs><title>icon1</title><g id="Vrstva_2" data-name="Vrstva 2"><g id="Vrstva_1-2" data-name="Vrstva 1"><path class="cls-1" d="M169.52,128.93c3.62-3.55,24.62-24.79,22.3-54.51-1.29-16.53-9.26-28.77-12.39-33.45a79.85,79.85,0,0,0-24.78-23.54C130.3,2,105.14,2.33,96.43,2.56c-11.25.31-63.91,1.75-85.48,42.12-1.43,2.68-14.57,28.22-5,57,14.15,42.36,64.23,51.59,66.9,52,11.85,2,26.27,1.35,28.49,1.24a156.19,156.19,0,0,0,32.21-5l49.56,21.06Z"/></g></g></svg>
