<svg xmlns="http://www.w3.org/2000/svg" viewBox="0 0 144.34 207.9"><defs><style>.cls-1{fill:none;stroke:#000;stroke-miterlimit:10;stroke-width:5px;}</style></defs><title>icon4</title><g id="Vrstva_2" data-name="Vrstva 2"><g id="Vrstva_1-2" data-name="Vrstva 1"><path class="cls-1" d="M72.31,206.51c-11.24-16.7-21.89-32.23-28.5-42.5-12.91-20-17.93-28.51-23-38-13-24.26-15.32-34.76-16-38C3,79.49.66,67.43,4.81,53a63.18,63.18,0,0,1,10-20c3.77-5.25,15.88-21.59,39-28,5.53-1.53,26-6.47,48,4a69.49,69.49,0,0,1,30,28,71.69,71.69,0,0,1,10,38c-.21,5.67-1.17,11.75-5,23-7.19,21.12-16.33,36.55-24,49-9,14.54-26.1,37.08-40.5,57.5"/><circle class="cls-1" cx="72.81" cy="68.01" r="37.5"/></g></g></svg>
