<svg xmlns="http://www.w3.org/2000/svg" viewBox="0 0 168.93 203.75"><defs><style>.cls-1{stroke:#000;stroke-miterlimit:10;}</style></defs><title>icon2</title><g id="Vrstva_2" data-name="Vrstva 2"><g id="Vrstva_1-2" data-name="Vrstva 1"><path class="cls-1" d="M105,131a43.3,43.3,0,0,0-8.3-8.83c-1.08-.93-3.23-2.51-6.58-4.84a40.33,40.33,0,0,1-5.82-4.59c-3.15-3.14-4.75-6.17-4.75-9a7.07,7.07,0,0,1,1.18-4.26,4.44,4.44,0,0,1,3.94-1.85,5.36,5.36,0,0,1,3.9,1.24,9.7,9.7,0,0,1,2.34,4.51,3.32,3.32,0,0,0,3.25,3.32,3.4,3.4,0,0,0,.87-.11l11-1.66a3.32,3.32,0,0,0,2.78-3.64c0-1.78-1.59-6.29-3.26-8.82A19.77,19.77,0,0,0,98,85.72a25.27,25.27,0,0,0-6.28-2.18c0-2.81.06-7.46,0-8.39a3.19,3.19,0,0,0-3.23-3.08H83.72a3.31,3.31,0,0,0-2.37,1,3.19,3.19,0,0,0-.87,2.36c0,.68,0,4.67,0,7.54a24.54,24.54,0,0,0-10.29,3.36c-6.28,4-9.47,9.94-9.47,17.66a22.29,22.29,0,0,0,3.44,11.95c2,3.11,5.49,6.62,10.25,10.45L84.17,134l2.49,2c2.91,2.64,4.39,5.22,4.39,7.68a5.88,5.88,0,0,1-.93,3.67,6.64,6.64,0,0,1-5.52,2.81h-.24a5.56,5.56,0,0,1-3.88-1.57c-.64-.56-1.72-2.29-3.29-7.32-.09-.28-.16-.5-.21-.66a3.21,3.21,0,0,0-3.09-2.21,3.46,3.46,0,0,0-.63.06l-10.77.64h0a3.12,3.12,0,0,0-2.21.9,3.28,3.28,0,0,0-.93,2.4,35.19,35.19,0,0,0,3.23,10.91,22.12,22.12,0,0,0,7.86,8.26,24.5,24.5,0,0,0,10,3.4v8a3.64,3.64,0,0,0,.86,2.51,3.44,3.44,0,0,0,2.44,1.15c.46,0,1,0,1.59,0l1.76,0h1.19a3.4,3.4,0,0,0,3.41-3.46V164.7q.85-.16,1.66-.36A20.65,20.65,0,0,0,104,158.25a21.31,21.31,0,0,0,5.57-15.18,20.18,20.18,0,0,0-2.3-8.25A33.42,33.42,0,0,0,105,131Zm-4.39,24.24a16.22,16.22,0,0,1-8.36,4.71,23.75,23.75,0,0,1-3.07.56,2.27,2.27,0,0,0-2,2.26v9.39h-.13c-.65,0-1.36,0-2,0v-9.25a2.27,2.27,0,0,0-2.12-2.27,21.3,21.3,0,0,1-10.07-2.93,17.43,17.43,0,0,1-6.28-6.6,33.15,33.15,0,0,1-2.47-7.56L73,143c1.11,3.49,2.51,7.2,4.47,8.94a10,10,0,0,0,6.92,2.73h.37a11.12,11.12,0,0,0,9-4.57,10.16,10.16,0,0,0,1.88-6.45c0-3.82-2-7.56-6-11.11l-.12-.1-2.55-2-9.73-7.65c-4.37-3.51-7.49-6.67-9.25-9.34a17.51,17.51,0,0,1-2.72-9.5c0-6.15,2.41-10.67,7.33-13.81a21.13,21.13,0,0,1,10.25-2.84A2.27,2.27,0,0,0,85,85.06c0-.71,0-5.83,0-8.43h2.18c0,1.82,0,5.46,0,8.77a2.27,2.27,0,0,0,1.93,2.27,22.26,22.26,0,0,1,6.83,2.08,15,15,0,0,1,5.77,5.18,21.94,21.94,0,0,1,2.36,5.64l-8.8,1.33a14.59,14.59,0,0,0-3.49-6.31,9.67,9.67,0,0,0-7.1-2.55A9,9,0,0,0,77,96.79a11.58,11.58,0,0,0-2,6.92c0,4.1,2,8.23,6.07,12.23a44.57,44.57,0,0,0,6.47,5.13c3.16,2.19,5.24,3.71,6.21,4.55a39,39,0,0,1,7.48,7.91,28.47,28.47,0,0,1,2,3.3,15.74,15.74,0,0,1,1.83,6.33A16.69,16.69,0,0,1,100.63,155.22Z"/><path class="cls-1" d="M141.91,67.27c-3.17-3.22-6.37-6.2-9.75-9.35a264,264,0,0,1-21.5-21.87A11.22,11.22,0,0,0,111,33c0-1,0-1.36,0-1.71s0-.66,0-1.67c0-.06,0-.13,0-.2V29c0-.3,0-.58,0-.81a10.82,10.82,0,0,0-.46-3.42L120,3.7A2.27,2.27,0,0,0,117.88.5H46.73a2.27,2.27,0,0,0-2.05,3.25l9.7,20.36a9.07,9.07,0,0,0-.77,3.64,2.3,2.3,0,0,0,0,.4c0,2.29,0,2.8,0,3.26s0,.61,0,1.57a9.93,9.93,0,0,0,.59,3.57A165.38,165.38,0,0,1,34,59.41,144.44,144.44,0,0,0,22.82,71.28C8.43,85.88.5,104.8.5,124.55c0,43.39,37.67,78.7,84,78.7s84-35.3,84-78.7C168.43,102.68,159,82.34,141.91,67.27ZM58.47,35a5.45,5.45,0,0,1-.29-2c0-1.07,0-1.4,0-1.75s0-.85,0-2.69a2.25,2.25,0,0,0,0-.38,6.49,6.49,0,0,1,.19-1.7h48a7.57,7.57,0,0,1,.16,1.77c0,.23,0,.49,0,.76v.24c0,.07,0,.14,0,.21,0,1.23,0,1.62,0,2s0,.62,0,1.6a6.24,6.24,0,0,1-.24,2ZM114.38,5l-7.32,16.38a5.74,5.74,0,0,0-1.38-.17l-43.37,0H58.79a5.09,5.09,0,0,0-.72.06L50.33,5ZM84.47,198.7C40.67,198.7,5,165.44,5,124.55,5,106,12.53,88.16,26.13,74.4l.15-.16A139.8,139.8,0,0,1,37.22,62.65,170,170,0,0,0,57.53,39.73a5,5,0,0,0,1.29.17h3.5l35.44,0h7.94a5.68,5.68,0,0,0,2-.35,269.51,269.51,0,0,0,21.36,21.67c3.37,3.14,6.55,6.1,9.67,9.27l.12.11c16.14,14.19,25,33.34,25,53.92C163.88,165.44,128.25,198.7,84.47,198.7Z"/></g></g></svg>
