<svg xmlns="http://www.w3.org/2000/svg" viewBox="0 0 220.74 226.96"><defs><style>.cls-1{stroke:#000;stroke-miterlimit:10;}</style></defs><title>icon3</title><g id="Vrstva_2" data-name="Vrstva 2"><g id="Vrstva_1-2" data-name="Vrstva 1"><path class="cls-1" d="M220.24,121.7c0-10-4.39-19.89-12.7-28.6-7.25-7.6-17.52-14.35-29.83-19.62a0,0,0,0,1,0,0l35.72-45.68a8.26,8.26,0,0,0,1-8.56,8,8,0,0,0-2.5-3.11,8.27,8.27,0,0,0-11.7,1.75L163.81,68.39h0q-3-.92-6-1.73a0,0,0,0,1,0,0l30.65-53.79a8.26,8.26,0,0,0-.26-8.62,8,8,0,0,0-2.93-2.71A8.27,8.27,0,0,0,173.86,5l-30.4,58.61h0a193.94,193.94,0,0,0-33.07-2.8C81.28,60.78,53.89,67,33.25,78.2,12.13,89.69.5,105.14.5,121.7h0c0,28,11.44,54.32,32.22,74.11a111.92,111.92,0,0,0,77.65,30.64A111.92,111.92,0,0,0,188,195.82c20.78-19.79,32.22-46.11,32.22-74.11h0Zm-5,0q0,1.29-.11,2.58c-8.25-14.57-26-26.79-50.22-34.42a0,0,0,0,1,0,0l9.59-12.26h0C200.05,88.17,215.24,104.58,215.24,121.7Zm-11-100.94a3.27,3.27,0,1,1,5.22,3.92L150.57,100h0c-1-.12-2.07-.22-3.13-.29a0,0,0,0,1,0,0l19.37-26.89,0,0Zm-43.58,52L151,86.15h0q-1.92-.42-3.9-.81a0,0,0,0,1,0,0l8.06-14.14h0q2.78.71,5.52,1.51A0,0,0,0,1,160.69,72.72ZM178.3,7.26A3.27,3.27,0,1,1,184,10.38l-47.3,83a2.58,2.58,0,0,0,.68,3.4A2.5,2.5,0,0,0,141,96l3.44-6h0q1.67.31,3.32.65a0,0,0,0,1,0,0c-.38.54-6.28,8.75-6.48,9.06h0c-18.49.86-29.33,10.91-29.82,11.38a2.5,2.5,0,0,0,3.43,3.63c.12-.11,12.1-11.22,32.09-10s33.59,13.84,33.72,14a2.5,2.5,0,1,0,3.44-3.62,63,63,0,0,0-28-14.08,0,0,0,0,1,0,0l5.38-6.88h0c26.72,8.06,45.92,22.22,51.74,38.19a0,0,0,0,1,0,0c-4.49,12.3-16.82,23.59-34.87,31.87-19,8.7-43.17,13.5-68.1,13.5-28.27,0-54.81-6-74.73-16.81C21,152.84,11.26,143,7.39,132.29c5.3-14.6,21.61-27.59,44.69-35.89q1.33-.48,2.68-.93a0,0,0,0,1,0,0c-.21.47-1.86,4.3-1.09,6.35a6.38,6.38,0,0,0,5,4.11l1.16.19a107.78,107.78,0,0,0,17.66,1.46,107.05,107.05,0,0,0,38.2-7,8.65,8.65,0,0,0,3.68-13.46,0,0,0,0,1,0,0c3.83.18,7.63.47,11.38.87a0,0,0,0,1,0,0l-3.11,6a2.57,2.57,0,0,0,.73,3.29,2.5,2.5,0,0,0,3.65-.9l4.83-9.31h0ZM74.94,83.66a2.5,2.5,0,0,0,3.37,1.06l11.41-5.94h0l2,.86a0,0,0,0,1,0,0L70.74,92a2.57,2.57,0,0,0-1.14,3.16,2.5,2.5,0,0,0,3.57,1.2L97.49,82.11h0l3.9,1.67a0,0,0,0,1,0,0L84.34,92.71A2.58,2.58,0,0,0,83,95.87a2.5,2.5,0,0,0,3.49,1.33s20.3-10.6,20.75-10.89h0l3.3,1.41a0,0,0,0,1,0,0l-9,4.71a2.57,2.57,0,0,0-1.28,3.16A2.5,2.5,0,0,0,103.77,97l12-6.24h0a3.86,3.86,0,0,1,.46,1.89,3.55,3.55,0,0,1-2.34,3.31,102.08,102.08,0,0,1-36.42,6.69,102.75,102.75,0,0,1-16.84-1.39L59.5,101a1.45,1.45,0,0,1-.88-2.36L77.05,76.52a4.09,4.09,0,0,1,4.76-1.14l1.94.83a0,0,0,0,1,0,0l-7.75,4A2.5,2.5,0,0,0,74.94,83.66Zm-39.3-1.07C55.56,71.74,82.1,65.77,110.37,65.77A189.62,189.62,0,0,1,141,68.23a0,0,0,0,1,0,0L133.28,83.2h0a165.52,165.52,0,0,0-23.57-1.32h0l-25.9-11.1a9.09,9.09,0,0,0-10.57,2.54L60.65,88.42h0c-14.57,4.08-27.51,10-37.46,17.18-7.77,5.59-13.72,12-17.57,18.71-.08-.87-.12-1.74-.12-2.61C5.49,107.06,16.2,93.16,35.64,82.58Zm74.73,138.88c-49.64,0-91.34-33-102.15-77.11,5.55,7.77,14,14.86,25,20.87,20.64,11.23,48,17.42,77.12,17.42,45.7,0,85.79-15.54,102.1-38.27a0,0,0,0,1,0,0C201.69,188.5,160,221.46,110.37,221.46Z"/><path class="cls-1" d="M52.69,146.68c17.22,0,30.71-7.24,30.71-16.48s-13.49-16.48-30.71-16.48c-19.35,0-26.22,8.88-26.22,16.48S33.34,146.68,52.69,146.68Zm0-28c15.16,0,25.72,6.05,25.72,11.49,0,2.7-2.51,5.48-6.88,7.65-5,2.47-11.68,3.84-18.84,3.84-12.89,0-21.22-4.51-21.22-11.49S39.79,118.71,52.69,118.71Z"/><path class="cls-1" d="M47.68,138.69C54.61,138.69,60,135,60,130.3s-5.43-8.38-12.36-8.38-12.36,3.68-12.36,8.38S40.75,138.69,47.68,138.69Zm0-11.77c4.5,0,7.37,2,7.37,3.39s-2.87,3.39-7.37,3.39-7.37-2-7.37-3.39S43.19,126.92,47.68,126.92Z"/><path class="cls-1" d="M96.07,136.19c-.45,3.39,1.82,6,6.76,7.88a85.74,85.74,0,0,0,12.78,3.08c5.21,1,13.92,2.66,14.72,4.64.07.16-.07.62-.52,1.26-5.17,7.33-34.36,6.12-51.54,3.63a2.5,2.5,0,1,0-.72,4.94,219.94,219.94,0,0,0,24.28,1.94q1.65,0,3.21,0c15.76,0,25.21-2.52,28.85-7.66,1.84-2.61,1.6-4.71,1.07-6-1.82-4.51-9.51-6-18.41-7.68a82.78,82.78,0,0,1-12-2.86c-2.32-.86-3.64-1.81-3.55-2.54a3.51,3.51,0,0,1,1.59-2.17c7.16-5.35,32.34-6.11,45.83-4a2.5,2.5,0,1,0,.77-4.93c-12.76-2-40.25-2-49.59,4.95A8.23,8.23,0,0,0,96.07,136.19Z"/><path class="cls-1" d="M144.39,146.57c-2.46-3.62-8.3-6.43-14.37-8.48a0,0,0,0,1,0,0,54.68,54.68,0,0,1,16,.26,2.5,2.5,0,0,0,1-4.89,58.72,58.72,0,0,0-27.28,1.83h0c-3.9-.88-6.92-1.38-7.78-1.52A2.5,2.5,0,0,0,109,136a2.59,2.59,0,0,0,2.24,2.65c2.26.36,4.91.87,7.67,1.52h0c.17.06,1.89.45,2.58.63,8.06,2.07,16.39,5.12,18.72,8.55a2.27,2.27,0,0,1,.47,1.91c-1.15,5.11-4.12,8.93-9.06,11.69-6.23,3.47-15.55,5.15-27.76,5h0a2.5,2.5,0,1,0,0,5h1.51c23.62,0,37.15-6.93,40.24-20.6A7.29,7.29,0,0,0,144.39,146.57Z"/><path class="cls-1" d="M125.71,116.56c.21-.08,20.9-7.43,41.56,3.84a2.5,2.5,0,0,0,2.39-4.38c-22.71-12.39-44.75-4.49-45.68-4.15a2.5,2.5,0,0,0,1.73,4.69Z"/><path class="cls-1" d="M150.93,143.67a2.5,2.5,0,0,0,3.37,1.07c.17-.09,17.65-9,34.63-2.86a2.5,2.5,0,0,0,3.26-1.7,2.59,2.59,0,0,0-1.71-3c-19-6.75-37.68,2.77-38.47,3.18A2.5,2.5,0,0,0,150.93,143.67Z"/><path class="cls-1" d="M165.86,149.67l13.65-.33a2.5,2.5,0,0,0-.06-5h-.06l-13.65.33a2.5,2.5,0,0,0,.06,5Z"/><path class="cls-1" d="M94.09,151.15a2.5,2.5,0,0,0,.6-5c-12.89-1.57-19,1.24-25.53,4.22a53.37,53.37,0,0,1-15.6,5c-16,2.45-23.15-8.58-23.47-9.08A2.5,2.5,0,0,0,25.84,149,27.52,27.52,0,0,0,49,160.8a35.37,35.37,0,0,0,5.34-.42A58.34,58.34,0,0,0,71.24,155C77.58,152,82.6,149.75,94.09,151.15Z"/><path class="cls-1" d="M187.73,150.43C184,153.84,173,153.64,165,153.49c-1.82,0-3.53-.07-5.16-.07-11.54,0-16.83,12.75-17,13.3a2.5,2.5,0,1,0,4.63,1.87c0-.1,4.21-10.17,12.42-10.17,1.58,0,3.28,0,5.07.07,9.95.19,21.23.4,26.37-4.5a2.5,2.5,0,0,0-.42-3.94A2.57,2.57,0,0,0,187.73,150.43Z"/><path class="cls-1" d="M90.19,124H102a2.58,2.58,0,0,0,2.62-2.27,2.5,2.5,0,0,0-2.49-2.72h-12c-4.28,0-8-5-9-6.94a2.5,2.5,0,0,0-4.38,2.4C77,114.85,82.06,124,90.19,124Z"/></g></g></svg>
